<svg width="16" height="16" viewBox="0 0 16 16" fill="none" xmlns="http://www.w3.org/2000/svg">
<path d="M12.5 1H3.5C2.122 1 1 2.122 1 3.5V12.5C1 13.879 2.122 15 3.5 15H12.5C13.878 15 15 13.879 15 12.5V3.5C15 2.122 13.878 1 12.5 1ZM2 12.5V3.5C2 2.673 2.673 2 3.5 2H9V14H3.5C2.673 14 2 13.327 2 12.5ZM14 12.5C14 13.327 13.327 14 12.5 14H10V2H12.5C13.327 2 14 2.673 14 3.5V12.5Z" fill="currentColor"/>
<path d="M5.71937 7.33244C5.87014 7.33244 6.01614 7.33244 6.16591 7.33244C6.16591 6.88783 6.16591 6.44529 6.16591 6.00003C6.6122 6.00003 7.05473 6.00003 7.5 6.00003C7.5 6.4419 7.5 6.88442 7.5 7.33075C7.28068 7.33075 7.06064 7.33075 6.83684 7.33075C6.83684 7.77706 6.83684 8.21959 6.83684 8.66592C6.61308 8.66592 6.39304 8.66592 6.16924 8.66592C6.16924 9.11223 6.16924 9.55476 6.16924 10C5.72295 10 5.28043 10 4.83412 10C4.83412 9.55809 4.83412 9.11556 4.83412 8.66923C4.61036 8.66923 4.39031 8.66923 4.16652 8.66923C4.16652 8.22292 4.16652 7.78039 4.16652 7.33407C3.94276 7.33407 3.72271 7.33407 3.5 7.33407C3.5 6.88775 3.5 6.44523 3.5 6C3.94198 6 4.38451 6 4.83082 6C4.83082 6.44196 4.83082 6.88449 4.83082 7.33244C5.12791 7.33244 5.42125 7.33244 5.71937 7.33244ZM4.94212 7.66622C4.79498 7.66622 4.64785 7.66622 4.50139 7.66622C4.50139 7.8917 4.50139 8.1117 4.50139 8.33107C4.72414 8.33107 4.94414 8.33107 5.16351 8.33107C5.16351 8.10832 5.16351 7.88832 5.16351 7.66622C5.09108 7.66622 5.02137 7.66622 4.94212 7.66622ZM5.83381 7.84266C5.83381 8.00569 5.83381 8.16871 5.83381 8.33107C6.05928 8.33107 6.27929 8.33107 6.49865 8.33107C6.49865 8.10832 6.49865 7.88831 6.49865 7.66895C6.27591 7.66895 6.0559 7.66895 5.83381 7.66895C5.83381 7.72548 5.83381 7.7793 5.83381 7.84266Z" fill="currentColor"/>
</svg>
