<svg width="16" height="16" viewBox="0 0 16 16" fill="none" xmlns="http://www.w3.org/2000/svg">
<path fill-rule="evenodd" clip-rule="evenodd" d="M15 3.5C15 2.119 13.881 1 12.5 1H3.5C2.119 1 1 2.119 1 3.5V12.5C1 13.881 2.119 15 3.5 15H12.5C13.881 15 15 13.881 15 12.5V3.5ZM9 2V14H3.5C2.672 14 2 13.328 2 12.5V3.5C2 2.672 2.672 2 3.5 2H9ZM12.6659 7.33244H12.2194H11.3308V6H10V7.33407H10.6665V8.66923H11.3341V10H12.6692V8.66592H13.3368V7.33075H14V6.00003H12.6659V7.33244ZM11.4421 7.66622H11.0014V8.33107H11.6635V7.66622H11.4421ZM12.3338 7.84266V8.33107H12.9987V7.66895H12.3338V7.84266Z" fill="currentColor"/>
</svg>
